<mxfile host="65bd71144e">
    <diagram id="C5RBs43oDa-KdzZeNtuy" name="Page-1">
        <mxGraphModel dx="3071" dy="1442" grid="1" gridSize="10" guides="1" tooltips="1" connect="1" arrows="1" fold="1" page="1" pageScale="1" pageWidth="827" pageHeight="1169" math="0" shadow="0">
            <root>
                <mxCell id="0"/>
                <mxCell id="1" parent="0"/>
                <mxCell id="User" value="&lt;p style=&quot;margin:0px;margin-top:4px;text-align:center;&quot;&gt;&lt;b&gt;User&lt;/b&gt;&lt;/p&gt;&lt;hr size=&quot;1&quot;&gt;&lt;p style=&quot;margin:0px;margin-left:4px;&quot;&gt;+ id : bigint&lt;br&gt;+ name : string&lt;br&gt;+ email : string&lt;br&gt;+ email_verified_at : timestamp&lt;br&gt;+ password : string&lt;br&gt;+ remember_token : string&lt;br&gt;+ created_at : timestamp&lt;br&gt;+ updated_at : timestamp&lt;/p&gt;&lt;hr size=&quot;1&quot;&gt;&lt;p style=&quot;margin:0px;margin-left:4px;&quot;&gt;+ hasVerifiedEmail() : boolean&lt;br&gt;+ markEmailAsVerified() : boolean&lt;br&gt;+ sendEmailVerificationNotification() : void&lt;br&gt;+ getEmailForVerification() : string&lt;/p&gt;" style="verticalAlign=top;align=left;overflow=fill;fontSize=12;fontFamily=Helvetica;html=1;" parent="1" vertex="1">
                    <mxGeometry x="80" y="360" width="280" height="330" as="geometry"/>
                </mxCell>
                <mxCell id="PasswordResetToken" value="&lt;p style=&quot;margin:0px;margin-top:4px;text-align:center;&quot;&gt;&lt;b&gt;PasswordResetToken&lt;/b&gt;&lt;/p&gt;&lt;hr size=&quot;1&quot;&gt;&lt;p style=&quot;margin:0px;margin-left:4px;&quot;&gt;+ email : string&lt;br&gt;+ token : string&lt;br&gt;+ created_at : timestamp&lt;/p&gt;&lt;hr size=&quot;1&quot;&gt;&lt;p style=&quot;margin:0px;margin-left:4px;&quot;&gt;+ createToken(email: string) : string&lt;br&gt;+ validateToken(token: string) : boolean&lt;/p&gt;" style="verticalAlign=top;align=left;overflow=fill;fontSize=12;fontFamily=Helvetica;html=1;" parent="1" vertex="1">
                    <mxGeometry x="404" y="240" width="240" height="120" as="geometry"/>
                </mxCell>
                <mxCell id="Session" value="&lt;p style=&quot;margin:0px;margin-top:4px;text-align:center;&quot;&gt;&lt;b&gt;Session&lt;/b&gt;&lt;/p&gt;&lt;hr size=&quot;1&quot;&gt;&lt;p style=&quot;margin:0px;margin-left:4px;&quot;&gt;+ id : string&lt;br&gt;+ user_id : bigint&lt;br&gt;+ ip_address : string&lt;br&gt;+ user_agent : text&lt;br&gt;+ payload : longText&lt;br&gt;+ last_activity : int&lt;/p&gt;&lt;hr size=&quot;1&quot;&gt;&lt;p style=&quot;margin:0px;margin-left:4px;&quot;&gt;+ createSession(userId: bigint) : void&lt;br&gt;+ invalidateSession() : void&lt;/p&gt;" style="verticalAlign=top;align=left;overflow=fill;fontSize=12;fontFamily=Helvetica;html=1;" parent="1" vertex="1">
                    <mxGeometry x="550" y="445" width="240" height="165" as="geometry"/>
                </mxCell>
                <mxCell id="Cache" value="&lt;p style=&quot;margin:0px;margin-top:4px;text-align:center;&quot;&gt;&lt;b&gt;Cache&lt;/b&gt;&lt;/p&gt;&lt;hr size=&quot;1&quot;&gt;&lt;p style=&quot;margin:0px;margin-left:4px;&quot;&gt;+ key : string&lt;br&gt;+ value : mediumText&lt;br&gt;+ expiration : int&lt;/p&gt;&lt;hr size=&quot;1&quot;&gt;&lt;p style=&quot;margin:0px;margin-left:4px;&quot;&gt;+ get(key: string) : string&lt;br&gt;+ set(key: string, value: string, expiration: int) : void&lt;br&gt;+ delete(key: string) : void&lt;/p&gt;" style="verticalAlign=top;align=left;overflow=fill;fontSize=12;fontFamily=Helvetica;html=1;" parent="1" vertex="1">
                    <mxGeometry x="1080" y="30" width="280" height="140" as="geometry"/>
                </mxCell>
                <mxCell id="CacheLock" value="&lt;p style=&quot;margin:0px;margin-top:4px;text-align:center;&quot;&gt;&lt;b&gt;CacheLock&lt;/b&gt;&lt;/p&gt;&lt;hr size=&quot;1&quot;&gt;&lt;p style=&quot;margin:0px;margin-left:4px;&quot;&gt;+ key : string&lt;br&gt;+ owner : string&lt;br&gt;+ expiration : int&lt;/p&gt;&lt;hr size=&quot;1&quot;&gt;&lt;p style=&quot;margin:0px;margin-left:4px;&quot;&gt;+ acquireLock(key: string) : boolean&lt;br&gt;+ releaseLock(key: string) : void&lt;/p&gt;" style="verticalAlign=top;align=left;overflow=fill;fontSize=12;fontFamily=Helvetica;html=1;" parent="1" vertex="1">
                    <mxGeometry x="1100" y="360" width="240" height="120" as="geometry"/>
                </mxCell>
                <mxCell id="Category" value="&lt;p style=&quot;margin:0px;margin-top:4px;text-align:center;&quot;&gt;&lt;b&gt;Category&lt;/b&gt;&lt;/p&gt;&lt;hr size=&quot;1&quot;&gt;&lt;p style=&quot;margin:0px;margin-left:4px;&quot;&gt;+ id : bigint&lt;br&gt;+ name : string&lt;br&gt;+ created_at : timestamp&lt;br&gt;+ updated_at : timestamp&lt;/p&gt;&lt;hr size=&quot;1&quot;&gt;&lt;p style=&quot;margin:0px;margin-left:4px;&quot;&gt;+ products() : hasMany&lt;/p&gt;" style="verticalAlign=top;align=left;overflow=fill;fontSize=12;fontFamily=Helvetica;html=1;" parent="1" vertex="1">
                    <mxGeometry x="-320" y="760" width="180" height="170" as="geometry"/>
                </mxCell>
                <mxCell id="Warehouse" value="&lt;p style=&quot;margin:0px;margin-top:4px;text-align:center;&quot;&gt;&lt;b&gt;Warehouse&lt;/b&gt;&lt;/p&gt;&lt;hr size=&quot;1&quot;&gt;&lt;p style=&quot;margin:0px;margin-left:4px;&quot;&gt;+ id : bigint&lt;br&gt;+ name : string&lt;br&gt;+ location : string&lt;br&gt;+ created_at : timestamp&lt;br&gt;+ updated_at : timestamp&lt;/p&gt;&lt;hr size=&quot;1&quot;&gt;&lt;p style=&quot;margin:0px;margin-left:4px;&quot;&gt;+ inventories() : hasMany&lt;br&gt;+ stockMovements() : hasMany&lt;br&gt;+ purchaseOrders() : hasMany&lt;/p&gt;" style="verticalAlign=top;align=left;overflow=fill;fontSize=12;fontFamily=Helvetica;html=1;" parent="1" vertex="1">
                    <mxGeometry x="120" y="30" width="200" height="200" as="geometry"/>
                </mxCell>
                <mxCell id="Inventory" value="&lt;p style=&quot;margin:0px;margin-top:4px;text-align:center;&quot;&gt;&lt;b&gt;Inventory&lt;/b&gt;&lt;/p&gt;&lt;hr size=&quot;1&quot;&gt;&lt;p style=&quot;margin:0px;margin-left:4px;&quot;&gt;+ id : bigint&lt;br&gt;+ product_id : bigint&lt;br&gt;+ warehouse_id : bigint&lt;br&gt;+ quantity : int&lt;br&gt;+ created_at : timestamp&lt;br&gt;+ updated_at : timestamp&lt;/p&gt;&lt;hr size=&quot;1&quot;&gt;&lt;p style=&quot;margin:0px;margin-left:4px;&quot;&gt;+ product() : belongsTo&lt;br&gt;+ warehouse() : belongsTo&lt;/p&gt;" style="verticalAlign=top;align=left;overflow=fill;fontSize=12;fontFamily=Helvetica;html=1;" parent="1" vertex="1">
                    <mxGeometry x="-670" y="130" width="220" height="220" as="geometry"/>
                </mxCell>
                <mxCell id="StockMovement" value="&lt;p style=&quot;margin:0px;margin-top:4px;text-align:center;&quot;&gt;&lt;b&gt;StockMovement&lt;/b&gt;&lt;/p&gt;&lt;hr size=&quot;1&quot;&gt;&lt;p style=&quot;margin:0px;margin-left:4px;&quot;&gt;+ id : bigint&lt;br&gt;+ product_id : bigint&lt;br&gt;+ warehouse_id : bigint&lt;br&gt;+ type : enum [IN, OUT, TRANSFER]&lt;br&gt;+ quantity : int&lt;br&gt;+ date : timestamp&lt;br&gt;+ reference_type : string&lt;br&gt;+ reference_id : bigint&lt;br&gt;+ notes : text&lt;br&gt;+ created_at : timestamp&lt;br&gt;+ updated_at : timestamp&lt;/p&gt;&lt;hr size=&quot;1&quot;&gt;&lt;p style=&quot;margin:0px;margin-left:4px;&quot;&gt;+ product() : belongsTo&lt;br&gt;+ warehouse() : belongsTo&lt;/p&gt;" style="verticalAlign=top;align=left;overflow=fill;fontSize=12;fontFamily=Helvetica;html=1;" parent="1" vertex="1">
                    <mxGeometry x="-770" y="585" width="393" height="260" as="geometry"/>
                </mxCell>
                <mxCell id="Store" value="&lt;p style=&quot;margin:0px;margin-top:4px;text-align:center;&quot;&gt;&lt;b&gt;Store&lt;/b&gt;&lt;/p&gt;&lt;hr size=&quot;1&quot;&gt;&lt;p style=&quot;margin:0px;margin-left:4px;&quot;&gt;+ id : bigint&lt;br&gt;+ name : string&lt;br&gt;+ location : string&lt;br&gt;+ created_at : timestamp&lt;br&gt;+ updated_at : timestamp&lt;/p&gt;&lt;hr size=&quot;1&quot;&gt;&lt;p style=&quot;margin:0px;margin-left:4px;&quot;&gt;+ storeInventories() : hasMany&lt;/p&gt;" style="verticalAlign=top;align=left;overflow=fill;fontSize=12;fontFamily=Helvetica;html=1;" parent="1" vertex="1">
                    <mxGeometry x="90" y="800" width="240" height="180" as="geometry"/>
                </mxCell>
                <mxCell id="User-PasswordReset" style="edgeStyle=orthogonalEdgeStyle;rounded=0;orthogonalLoop=1;jettySize=auto;html=1;endArrow=open;endFill=0;" parent="1" source="User" target="PasswordResetToken" edge="1">
                    <mxGeometry relative="1" as="geometry">
                        <Array as="points">
                            <mxPoint x="455" y="440"/>
                            <mxPoint x="455" y="320"/>
                        </Array>
                    </mxGeometry>
                </mxCell>
                <mxCell id="User-PasswordReset-Label" value="1" style="edgeLabel;html=1;align=center;verticalAlign=middle;resizable=0;points=[];" parent="User-PasswordReset" connectable="0" vertex="1">
                    <mxGeometry x="-0.8" y="-1" relative="1" as="geometry">
                        <mxPoint as="offset"/>
                    </mxGeometry>
                </mxCell>
                <mxCell id="User-PasswordReset-Label2" value="0..*" style="edgeLabel;html=1;align=center;verticalAlign=middle;resizable=0;points=[];" parent="User-PasswordReset" connectable="0" vertex="1">
                    <mxGeometry x="0.8" y="1" relative="1" as="geometry">
                        <mxPoint as="offset"/>
                    </mxGeometry>
                </mxCell>
                <mxCell id="User-Session" style="edgeStyle=orthogonalEdgeStyle;rounded=0;orthogonalLoop=1;jettySize=auto;html=1;endArrow=open;endFill=0;" parent="1" source="User" target="Session" edge="1">
                    <mxGeometry relative="1" as="geometry"/>
                </mxCell>
                <mxCell id="User-Session-Label" value="1" style="edgeLabel;html=1;align=center;verticalAlign=middle;resizable=0;points=[];" parent="User-Session" connectable="0" vertex="1">
                    <mxGeometry x="-0.8" relative="1" as="geometry">
                        <mxPoint as="offset"/>
                    </mxGeometry>
                </mxCell>
                <mxCell id="User-Session-Label2" value="0..*" style="edgeLabel;html=1;align=center;verticalAlign=middle;resizable=0;points=[];" parent="User-Session" connectable="0" vertex="1">
                    <mxGeometry x="0.8" relative="1" as="geometry">
                        <mxPoint as="offset"/>
                    </mxGeometry>
                </mxCell>
                <mxCell id="User-Product" style="edgeStyle=orthogonalEdgeStyle;rounded=0;orthogonalLoop=1;jettySize=auto;html=1;endArrow=open;endFill=0;" parent="1" source="User" target="Product" edge="1">
                    <mxGeometry relative="1" as="geometry">
                        <Array as="points">
                            <mxPoint y="460"/>
                            <mxPoint y="460"/>
                        </Array>
                    </mxGeometry>
                </mxCell>
                <mxCell id="User-Product-Label" value="1" style="edgeLabel;html=1;align=center;verticalAlign=middle;resizable=0;points=[];" parent="User-Product" connectable="0" vertex="1">
                    <mxGeometry x="-0.8" relative="1" as="geometry">
                        <mxPoint as="offset"/>
                    </mxGeometry>
                </mxCell>
                <mxCell id="User-Product-Label2" value="0..*" style="edgeLabel;html=1;align=center;verticalAlign=middle;resizable=0;points=[];" parent="User-Product" connectable="0" vertex="1">
                    <mxGeometry x="0.8" relative="1" as="geometry">
                        <mxPoint as="offset"/>
                    </mxGeometry>
                </mxCell>
                <mxCell id="User-Product-Label3" value="manages" style="edgeLabel;html=1;align=center;verticalAlign=middle;resizable=0;points=[];" parent="User-Product" connectable="0" vertex="1">
                    <mxGeometry relative="1" as="geometry">
                        <mxPoint as="offset"/>
                    </mxGeometry>
                </mxCell>
                <mxCell id="Category-Product" style="edgeStyle=orthogonalEdgeStyle;rounded=0;orthogonalLoop=1;jettySize=auto;html=1;endArrow=diamond;endFill=0;" parent="1" source="Category" target="Product" edge="1">
                    <mxGeometry relative="1" as="geometry"/>
                </mxCell>
                <mxCell id="Category-Product-Label" value="1" style="edgeLabel;html=1;align=center;verticalAlign=middle;resizable=0;points=[];" parent="Category-Product" connectable="0" vertex="1">
                    <mxGeometry x="-0.8" relative="1" as="geometry">
                        <mxPoint as="offset"/>
                    </mxGeometry>
                </mxCell>
                <mxCell id="Category-Product-Label2" value="0..*" style="edgeLabel;html=1;align=center;verticalAlign=middle;resizable=0;points=[];" parent="Category-Product" connectable="0" vertex="1">
                    <mxGeometry x="0.8" relative="1" as="geometry">
                        <mxPoint as="offset"/>
                    </mxGeometry>
                </mxCell>
                <mxCell id="Cache-CacheLock" style="edgeStyle=orthogonalEdgeStyle;rounded=0;orthogonalLoop=1;jettySize=auto;html=1;endArrow=none;endFill=0;" parent="1" source="Cache" target="CacheLock" edge="1">
                    <mxGeometry relative="1" as="geometry"/>
                </mxCell>
                <mxCell id="Cache-CacheLock-Label" value="1" style="edgeLabel;html=1;align=center;verticalAlign=middle;resizable=0;points=[];" parent="Cache-CacheLock" connectable="0" vertex="1">
                    <mxGeometry x="-0.8" relative="1" as="geometry">
                        <mxPoint as="offset"/>
                    </mxGeometry>
                </mxCell>
                <mxCell id="Cache-CacheLock-Label2" value="1" style="edgeLabel;html=1;align=center;verticalAlign=middle;resizable=0;points=[];" parent="Cache-CacheLock" connectable="0" vertex="1">
                    <mxGeometry x="0.8" relative="1" as="geometry">
                        <mxPoint as="offset"/>
                    </mxGeometry>
                </mxCell>
                <mxCell id="Product-Inventory" style="edgeStyle=orthogonalEdgeStyle;rounded=0;orthogonalLoop=1;jettySize=auto;html=1;endArrow=open;endFill=0;" parent="1" source="Product" target="Inventory" edge="1">
                    <mxGeometry relative="1" as="geometry"/>
                </mxCell>
                <mxCell id="Product-Inventory-Label" value="1" style="edgeLabel;html=1;align=center;verticalAlign=middle;resizable=0;points=[];" parent="Product-Inventory" connectable="0" vertex="1">
                    <mxGeometry x="-0.8" relative="1" as="geometry">
                        <mxPoint x="24" as="offset"/>
                    </mxGeometry>
                </mxCell>
                <mxCell id="Product-Inventory-Label2" value="0..*" style="edgeLabel;html=1;align=center;verticalAlign=middle;resizable=0;points=[];" parent="Product-Inventory" connectable="0" vertex="1">
                    <mxGeometry x="0.8" relative="1" as="geometry">
                        <mxPoint y="-14" as="offset"/>
                    </mxGeometry>
                </mxCell>
                <mxCell id="Product-StockMovement" style="edgeStyle=orthogonalEdgeStyle;rounded=0;orthogonalLoop=1;jettySize=auto;html=1;endArrow=open;endFill=0;" parent="1" source="Product" target="StockMovement" edge="1">
                    <mxGeometry relative="1" as="geometry">
                        <Array as="points">
                            <mxPoint x="-563" y="550"/>
                        </Array>
                    </mxGeometry>
                </mxCell>
                <mxCell id="Product-StockMovement-Label" value="1" style="edgeLabel;html=1;align=center;verticalAlign=middle;resizable=0;points=[];" parent="Product-StockMovement" connectable="0" vertex="1">
                    <mxGeometry x="-0.8" relative="1" as="geometry">
                        <mxPoint x="14" as="offset"/>
                    </mxGeometry>
                </mxCell>
                <mxCell id="Product-StockMovement-Label2" value="0..*" style="edgeLabel;html=1;align=center;verticalAlign=middle;resizable=0;points=[];" parent="Product-StockMovement" connectable="0" vertex="1">
                    <mxGeometry x="0.8" relative="1" as="geometry">
                        <mxPoint as="offset"/>
                    </mxGeometry>
                </mxCell>
                <mxCell id="Warehouse-Inventory" style="edgeStyle=orthogonalEdgeStyle;rounded=0;orthogonalLoop=1;jettySize=auto;html=1;endArrow=open;endFill=0;" parent="1" source="Warehouse" target="Inventory" edge="1">
                    <mxGeometry relative="1" as="geometry">
                        <Array as="points">
                            <mxPoint x="-560" y="90"/>
                        </Array>
                    </mxGeometry>
                </mxCell>
                <mxCell id="Warehouse-Inventory-Label" value="1" style="edgeLabel;html=1;align=center;verticalAlign=middle;resizable=0;points=[];" parent="Warehouse-Inventory" connectable="0" vertex="1">
                    <mxGeometry x="-0.8" relative="1" as="geometry">
                        <mxPoint as="offset"/>
                    </mxGeometry>
                </mxCell>
                <mxCell id="Warehouse-Inventory-Label2" value="0..*" style="edgeLabel;html=1;align=center;verticalAlign=middle;resizable=0;points=[];" parent="Warehouse-Inventory" connectable="0" vertex="1">
                    <mxGeometry x="0.8" relative="1" as="geometry">
                        <mxPoint as="offset"/>
                    </mxGeometry>
                </mxCell>
                <mxCell id="Store-StockMovement" style="edgeStyle=orthogonalEdgeStyle;rounded=0;orthogonalLoop=1;jettySize=auto;html=1;endArrow=open;endFill=0;" parent="1" source="Store" target="StockMovement" edge="1">
                    <mxGeometry relative="1" as="geometry">
                        <Array as="points">
                            <mxPoint x="220" y="1030"/>
                            <mxPoint x="-650" y="1030"/>
                        </Array>
                    </mxGeometry>
                </mxCell>
                <mxCell id="Store-StockMovement-Label" value="1" style="edgeLabel;html=1;align=center;verticalAlign=middle;resizable=0;points=[];" parent="Store-StockMovement" connectable="0" vertex="1">
                    <mxGeometry x="-0.8" relative="1" as="geometry">
                        <mxPoint as="offset"/>
                    </mxGeometry>
                </mxCell>
                <mxCell id="Store-StockMovement-Label2" value="0..*" style="edgeLabel;html=1;align=center;verticalAlign=middle;resizable=0;points=[];" parent="Store-StockMovement" connectable="0" vertex="1">
                    <mxGeometry x="0.8" relative="1" as="geometry">
                        <mxPoint as="offset"/>
                    </mxGeometry>
                </mxCell>
                <mxCell id="Store-StockMovement-Label3" value="generates" style="edgeLabel;html=1;align=center;verticalAlign=middle;resizable=0;points=[];" parent="Store-StockMovement" connectable="0" vertex="1">
                    <mxGeometry relative="1" as="geometry">
                        <mxPoint as="offset"/>
                    </mxGeometry>
                </mxCell>
                <mxCell id="Inventory-StockMovement" style="edgeStyle=orthogonalEdgeStyle;rounded=0;orthogonalLoop=1;jettySize=auto;html=1;endArrow=open;endFill=0;" parent="1" source="Inventory" target="StockMovement" edge="1">
                    <mxGeometry relative="1" as="geometry">
                        <Array as="points">
                            <mxPoint x="-630" y="450"/>
                            <mxPoint x="-630" y="450"/>
                        </Array>
                    </mxGeometry>
                </mxCell>
                <mxCell id="Inventory-StockMovement-Label" value="1" style="edgeLabel;html=1;align=center;verticalAlign=middle;resizable=0;points=[];" parent="Inventory-StockMovement" connectable="0" vertex="1">
                    <mxGeometry x="-0.8" relative="1" as="geometry">
                        <mxPoint y="-14" as="offset"/>
                    </mxGeometry>
                </mxCell>
                <mxCell id="Inventory-StockMovement-Label2" value="0..*" style="edgeLabel;html=1;align=center;verticalAlign=middle;resizable=0;points=[];" parent="Inventory-StockMovement" connectable="0" vertex="1">
                    <mxGeometry x="0.8" relative="1" as="geometry">
                        <mxPoint as="offset"/>
                    </mxGeometry>
                </mxCell>
                <mxCell id="Inventory-StockMovement-Label3" value="triggers" style="edgeLabel;html=1;align=center;verticalAlign=middle;resizable=0;points=[];" parent="Inventory-StockMovement" connectable="0" vertex="1">
                    <mxGeometry relative="1" as="geometry">
                        <mxPoint as="offset"/>
                    </mxGeometry>
                </mxCell>
                <mxCell id="User-Warehouse" style="edgeStyle=orthogonalEdgeStyle;rounded=0;orthogonalLoop=1;jettySize=auto;html=1;endArrow=open;endFill=0;" parent="1" source="User" target="Warehouse" edge="1">
                    <mxGeometry relative="1" as="geometry">
                        <Array as="points">
                            <mxPoint x="220" y="200"/>
                        </Array>
                    </mxGeometry>
                </mxCell>
                <mxCell id="User-Warehouse-Label" value="1" style="edgeLabel;html=1;align=center;verticalAlign=middle;resizable=0;points=[];" parent="User-Warehouse" connectable="0" vertex="1">
                    <mxGeometry x="-0.9" relative="1" as="geometry">
                        <mxPoint as="offset"/>
                    </mxGeometry>
                </mxCell>
                <mxCell id="User-Warehouse-Label2" value="0..*" style="edgeLabel;html=1;align=center;verticalAlign=middle;resizable=0;points=[];" parent="User-Warehouse" connectable="0" vertex="1">
                    <mxGeometry x="0.9" relative="1" as="geometry">
                        <mxPoint as="offset"/>
                    </mxGeometry>
                </mxCell>
                <mxCell id="User-Warehouse-Label3" value="manages" style="edgeLabel;html=1;align=center;verticalAlign=middle;resizable=0;points=[];" parent="User-Warehouse" connectable="0" vertex="1">
                    <mxGeometry relative="1" as="geometry">
                        <mxPoint as="offset"/>
                    </mxGeometry>
                </mxCell>
                <mxCell id="User-Store" style="edgeStyle=orthogonalEdgeStyle;rounded=0;orthogonalLoop=1;jettySize=auto;html=1;endArrow=open;endFill=0;" parent="1" source="User" target="Store" edge="1">
                    <mxGeometry relative="1" as="geometry">
                        <Array as="points">
                            <mxPoint x="210" y="730"/>
                            <mxPoint x="210" y="730"/>
                        </Array>
                    </mxGeometry>
                </mxCell>
                <mxCell id="User-Store-Label" value="1" style="edgeLabel;html=1;align=center;verticalAlign=middle;resizable=0;points=[];" parent="User-Store" connectable="0" vertex="1">
                    <mxGeometry x="-0.95" relative="1" as="geometry">
                        <mxPoint as="offset"/>
                    </mxGeometry>
                </mxCell>
                <mxCell id="User-Store-Label2" value="0..*" style="edgeLabel;html=1;align=center;verticalAlign=middle;resizable=0;points=[];" parent="User-Store" connectable="0" vertex="1">
                    <mxGeometry x="0.95" relative="1" as="geometry">
                        <mxPoint as="offset"/>
                    </mxGeometry>
                </mxCell>
                <mxCell id="User-Store-Label3" value="manages" style="edgeLabel;html=1;align=center;verticalAlign=middle;resizable=0;points=[];" parent="User-Store" connectable="0" vertex="1">
                    <mxGeometry relative="1" as="geometry">
                        <mxPoint as="offset"/>
                    </mxGeometry>
                </mxCell>
                <mxCell id="StockMovement-Store" style="edgeStyle=orthogonalEdgeStyle;rounded=0;orthogonalLoop=1;jettySize=auto;html=1;endArrow=open;endFill=0;" parent="1" source="StockMovement" target="Store" edge="1">
                    <mxGeometry relative="1" as="geometry">
                        <Array as="points">
                            <mxPoint x="-470" y="960"/>
                            <mxPoint x="50" y="960"/>
                            <mxPoint x="50" y="890"/>
                        </Array>
                    </mxGeometry>
                </mxCell>
                <mxCell id="StockMovement-Store-Label" value="0..*" style="edgeLabel;html=1;align=center;verticalAlign=middle;resizable=0;points=[];" parent="StockMovement-Store" connectable="0" vertex="1">
                    <mxGeometry x="-0.8" relative="1" as="geometry">
                        <mxPoint y="-56" as="offset"/>
                    </mxGeometry>
                </mxCell>
                <mxCell id="StockMovement-Store-Label2" value="1" style="edgeLabel;html=1;align=center;verticalAlign=middle;resizable=0;points=[];" parent="StockMovement-Store" connectable="0" vertex="1">
                    <mxGeometry x="0.8" relative="1" as="geometry">
                        <mxPoint as="offset"/>
                    </mxGeometry>
                </mxCell>
                <mxCell id="StockMovement-Store-Label3" value="updates" style="edgeLabel;html=1;align=center;verticalAlign=middle;resizable=0;points=[];" parent="StockMovement-Store" connectable="0" vertex="1">
                    <mxGeometry x="0.3" relative="1" as="geometry">
                        <mxPoint as="offset"/>
                    </mxGeometry>
                </mxCell>
                <mxCell id="2" value="" style="edgeStyle=orthogonalEdgeStyle;rounded=0;orthogonalLoop=1;jettySize=auto;html=1;endArrow=open;endFill=0;" parent="1" source="Warehouse" target="Product" edge="1">
                    <mxGeometry relative="1" as="geometry">
                        <Array as="points"/>
                        <mxPoint x="-90" y="300" as="sourcePoint"/>
                        <mxPoint x="-100" y="820" as="targetPoint"/>
                    </mxGeometry>
                </mxCell>
                <mxCell id="3" value="1" style="edgeLabel;html=1;align=center;verticalAlign=middle;resizable=0;points=[];" parent="2" connectable="0" vertex="1">
                    <mxGeometry x="-0.8" relative="1" as="geometry">
                        <mxPoint as="offset"/>
                    </mxGeometry>
                </mxCell>
                <mxCell id="PurchaseOrder-Warehouse" style="edgeStyle=orthogonalEdgeStyle;rounded=0;orthogonalLoop=1;jettySize=auto;html=1;endArrow=open;endFill=0;" parent="1" source="PurchaseOrder" target="Warehouse" edge="1">
                    <mxGeometry relative="1" as="geometry">
                        <Array as="points">
                            <mxPoint x="700" y="150"/>
                            <mxPoint x="320" y="150"/>
                        </Array>
                    </mxGeometry>
                </mxCell>
                <mxCell id="PurchaseOrder-Warehouse-Label" value="1" style="edgeLabel;html=1;align=center;verticalAlign=middle;resizable=0;points=[];" parent="PurchaseOrder-Warehouse" connectable="0" vertex="1">
                    <mxGeometry x="0.8" relative="1" as="geometry">
                        <mxPoint as="offset"/>
                    </mxGeometry>
                </mxCell>
                <mxCell id="PurchaseOrder-Warehouse-Label2" value="0..*" style="edgeLabel;html=1;align=center;verticalAlign=middle;resizable=0;points=[];" parent="PurchaseOrder-Warehouse" connectable="0" vertex="1">
                    <mxGeometry x="-0.8" relative="1" as="geometry">
                        <mxPoint as="offset"/>
                    </mxGeometry>
                </mxCell>
                <mxCell id="PurchaseOrder-Items" style="edgeStyle=orthogonalEdgeStyle;rounded=0;orthogonalLoop=1;jettySize=auto;html=1;endArrow=open;endFill=0;" parent="1" source="PurchaseOrder" target="PurchaseOrderItem" edge="1">
                    <mxGeometry relative="1" as="geometry"/>
                </mxCell>
                <mxCell id="PurchaseOrder-Items-Label" value="1" style="edgeLabel;html=1;align=center;verticalAlign=middle;resizable=0;points=[];" parent="PurchaseOrder-Items" connectable="0" vertex="1">
                    <mxGeometry x="-0.8" relative="1" as="geometry">
                        <mxPoint as="offset"/>
                    </mxGeometry>
                </mxCell>
                <mxCell id="PurchaseOrder-Items-Label2" value="0..*" style="edgeLabel;html=1;align=center;verticalAlign=middle;resizable=0;points=[];" parent="PurchaseOrder-Items" connectable="0" vertex="1">
                    <mxGeometry x="0.8" relative="1" as="geometry">
                        <mxPoint as="offset"/>
                    </mxGeometry>
                </mxCell>
                <mxCell id="PurchaseOrderItem-Product" style="edgeStyle=orthogonalEdgeStyle;rounded=0;orthogonalLoop=1;jettySize=auto;html=1;endArrow=open;endFill=0;" parent="1" source="PurchaseOrderItem" target="Product" edge="1">
                    <mxGeometry relative="1" as="geometry">
                        <Array as="points">
                            <mxPoint x="700" y="660"/>
                            <mxPoint x="700" y="710"/>
                            <mxPoint x="-170" y="710"/>
                        </Array>
                    </mxGeometry>
                </mxCell>
                <mxCell id="PurchaseOrderItem-Product-Label" value="1" style="edgeLabel;html=1;align=center;verticalAlign=middle;resizable=0;points=[];" parent="PurchaseOrderItem-Product" connectable="0" vertex="1">
                    <mxGeometry x="0.8" relative="1" as="geometry">
                        <mxPoint as="offset"/>
                    </mxGeometry>
                </mxCell>
                <mxCell id="PurchaseOrderItem-Product-Label2" value="0..*" style="edgeLabel;html=1;align=center;verticalAlign=middle;resizable=0;points=[];" parent="PurchaseOrderItem-Product" connectable="0" vertex="1">
                    <mxGeometry x="-0.8" relative="1" as="geometry">
                        <mxPoint as="offset"/>
                    </mxGeometry>
                </mxCell>
                <mxCell id="Store-StoreInventory" style="edgeStyle=orthogonalEdgeStyle;rounded=0;orthogonalLoop=1;jettySize=auto;html=1;endArrow=open;endFill=0;" parent="1" source="Store" target="StoreInventory" edge="1">
                    <mxGeometry relative="1" as="geometry">
                        <Array as="points">
                            <mxPoint x="330" y="890"/>
                            <mxPoint x="510" y="890"/>
                        </Array>
                    </mxGeometry>
                </mxCell>
                <mxCell id="Store-StoreInventory-Label" value="1" style="edgeLabel;html=1;align=center;verticalAlign=middle;resizable=0;points=[];" parent="Store-StoreInventory" connectable="0" vertex="1">
                    <mxGeometry x="-0.8" relative="1" as="geometry">
                        <mxPoint as="offset"/>
                    </mxGeometry>
                </mxCell>
                <mxCell id="Store-StoreInventory-Label2" value="0..*" style="edgeLabel;html=1;align=center;verticalAlign=middle;resizable=0;points=[];" parent="Store-StoreInventory" connectable="0" vertex="1">
                    <mxGeometry x="0.8" relative="1" as="geometry">
                        <mxPoint as="offset"/>
                    </mxGeometry>
                </mxCell>
                <mxCell id="Product-StoreInventory" style="edgeStyle=orthogonalEdgeStyle;rounded=0;orthogonalLoop=1;jettySize=auto;html=1;endArrow=open;endFill=0;" parent="1" source="Product" target="StoreInventory" edge="1">
                    <mxGeometry relative="1" as="geometry">
                        <Array as="points">
                            <mxPoint x="-100" y="780"/>
                            <mxPoint x="524" y="780"/>
                        </Array>
                        <mxPoint x="-100" y="550" as="sourcePoint"/>
                        <mxPoint x="524" y="790" as="targetPoint"/>
                    </mxGeometry>
                </mxCell>
                <mxCell id="Product-StoreInventory-Label" value="1" style="edgeLabel;html=1;align=center;verticalAlign=middle;resizable=0;points=[];" parent="Product-StoreInventory" connectable="0" vertex="1">
                    <mxGeometry x="-0.8" relative="1" as="geometry">
                        <mxPoint as="offset"/>
                    </mxGeometry>
                </mxCell>
                <mxCell id="Product-StoreInventory-Label2" value="0..*" style="edgeLabel;html=1;align=center;verticalAlign=middle;resizable=0;points=[];" parent="Product-StoreInventory" connectable="0" vertex="1">
                    <mxGeometry x="0.8" relative="1" as="geometry">
                        <mxPoint as="offset"/>
                    </mxGeometry>
                </mxCell>
                <mxCell id="Product" value="&lt;p style=&quot;margin:0px;margin-top:4px;text-align:center;&quot;&gt;&lt;b&gt;Product&lt;/b&gt;&lt;/p&gt;&lt;hr size=&quot;1&quot;&gt;&lt;p style=&quot;margin:0px;margin-left:4px;&quot;&gt;+ id : bigint&lt;br&gt;+ name : string&lt;br&gt;+ sku : string&lt;br&gt;+ category_id : bigint&lt;br&gt;+ unit : string&lt;br&gt;+ description : text&lt;br&gt;+ created_at : timestamp&lt;br&gt;+ updated_at : timestamp&lt;/p&gt;&lt;hr size=&quot;1&quot;&gt;&lt;p style=&quot;margin:0px;margin-left:4px;&quot;&gt;+ category() : belongsTo&lt;br&gt;+ inventories() : hasMany&lt;br&gt;+ stockMovements() : hasMany&lt;br&gt;+ purchaseOrderItems() : hasMany&lt;br&gt;+ storeInventories() : hasMany&lt;/p&gt;" style="verticalAlign=top;align=left;overflow=fill;fontSize=12;fontFamily=Helvetica;html=1;" parent="1" vertex="1">
                    <mxGeometry x="-360" y="370" width="260" height="200" as="geometry"/>
                </mxCell>
                <mxCell id="StoreInventory" value="&lt;p style=&quot;margin:0px;margin-top:4px;text-align:center;&quot;&gt;&lt;b&gt;StoreInventory&lt;/b&gt;&lt;/p&gt;&lt;hr size=&quot;1&quot;&gt;&lt;p style=&quot;margin:0px;margin-left:4px;&quot;&gt;+ id : bigint&lt;br&gt;+ product_id : bigint&lt;br&gt;+ store_id : bigint&lt;br&gt;+ quantity : int&lt;br&gt;+ created_at : timestamp&lt;br&gt;+ updated_at : timestamp&lt;/p&gt;&lt;hr size=&quot;1&quot;&gt;&lt;p style=&quot;margin:0px;margin-left:4px;&quot;&gt;+ product() : belongsTo&lt;br&gt;+ store() : belongsTo&lt;/p&gt;" style="verticalAlign=top;align=left;overflow=fill;fontSize=12;fontFamily=Helvetica;html=1;" parent="1" vertex="1">
                    <mxGeometry x="414" y="810" width="220" height="180" as="geometry"/>
                </mxCell>
                <mxCell id="PurchaseOrder" value="&lt;p style=&quot;margin:0px;margin-top:4px;text-align:center;&quot;&gt;&lt;b&gt;PurchaseOrder&lt;/b&gt;&lt;/p&gt;&lt;hr size=&quot;1&quot;&gt;&lt;p style=&quot;margin:0px;margin-left:4px;&quot;&gt;+ id : bigint&lt;br&gt;+ purchase_order_number : string&lt;br&gt;+ supplier_name : string&lt;br&gt;+ order_date : date&lt;br&gt;+ expected_delivery_date : date&lt;br&gt;+ status : enum [pending, confirmed, completed]&lt;br&gt;+ warehouse_id : bigint&lt;br&gt;+ total_amount : decimal&lt;br&gt;+ created_at : timestamp&lt;br&gt;+ updated_at : timestamp&lt;/p&gt;&lt;hr size=&quot;1&quot;&gt;&lt;p style=&quot;margin:0px;margin-left:4px;&quot;&gt;+ warehouse() : belongsTo&lt;br&gt;+ items() : hasMany&lt;br&gt;+ confirm() : void&lt;br&gt;+ complete() : void&lt;/p&gt;" style="verticalAlign=top;align=left;overflow=fill;fontSize=12;fontFamily=Helvetica;html=1;" parent="1" vertex="1">
                    <mxGeometry x="700" y="30" width="280" height="280" as="geometry"/>
                </mxCell>
                <mxCell id="PurchaseOrderItem" value="&lt;p style=&quot;margin:0px;margin-top:4px;text-align:center;&quot;&gt;&lt;b&gt;PurchaseOrderItem&lt;/b&gt;&lt;/p&gt;&lt;hr size=&quot;1&quot;&gt;&lt;p style=&quot;margin:0px;margin-left:4px;&quot;&gt;+ id : bigint&lt;br&gt;+ purchase_order_id : bigint&lt;br&gt;+ product_id : bigint&lt;br&gt;+ quantity : int&lt;br&gt;+ unit_price : decimal&lt;br&gt;+ total_price : decimal&lt;br&gt;+ created_at : timestamp&lt;br&gt;+ updated_at : timestamp&lt;/p&gt;&lt;hr size=&quot;1&quot;&gt;&lt;p style=&quot;margin:0px;margin-left:4px;&quot;&gt;+ purchaseOrder() : belongsTo&lt;br&gt;+ product() : belongsTo&lt;/p&gt;" style="verticalAlign=top;align=left;overflow=fill;fontSize=12;fontFamily=Helvetica;html=1;" parent="1" vertex="1">
                    <mxGeometry x="840" y="520" width="240" height="200" as="geometry"/>
                </mxCell>
            </root>
        </mxGraphModel>
    </diagram>
</mxfile>